<?xml version="1.0" encoding="UTF-8"?>
<svg width="195px" height="171px" viewBox="0 0 195 171" version="1.1" xmlns="http://www.w3.org/2000/svg" xmlns:xlink="http://www.w3.org/1999/xlink">
    <title>Group</title>
    <g id="Page-1" stroke="none" stroke-width="1" fill="none" fill-rule="evenodd">
        <g id="iPhone-15-Pro" transform="translate(-99, -183)">
            <g id="Group" transform="translate(101, 184.41)">
                <path d="M162.912241,0.592885838 L186.98309,0.634675537 C188.041548,0.63651314 189.056129,1.05779831 189.804573,1.80624238 C191.36667,3.36833955 191.36667,5.90099947 189.804573,7.46309663 L113.206,84.061 L189.800476,160.708048 C191.362028,162.27069 191.361144,164.80335 189.798502,166.364902 C189.049137,167.113744 188.033311,167.534731 186.973919,167.535487 L162.944693,167.55265 C161.882837,167.553409 160.864254,167.131924 160.113409,166.381078 L97.0361652,103.303835 L95.5,101.767 L30.8865912,166.381078 C30.1893775,167.078292 29.2613087,167.491516 28.2821035,167.546384 L28.0553071,167.55265 L4.03083605,167.535491 C2.97096034,167.534734 1.95471143,167.113364 1.20526593,166.363919 C-0.356831233,164.801822 -0.356831233,162.269162 1.20526593,160.707065 L77.823,84.09 L1.20526593,7.47293546 C-0.356831233,5.9108383 -0.356831233,3.37817838 1.20526593,1.81608121 C1.95471143,1.06663572 2.97096034,0.645266377 4.03083605,0.644509359 L28.0566471,0.627348884 C29.1177103,0.626591018 30.1355995,1.04744793 30.8863135,1.79730396 L92.9986972,63.8386987 L95.535,66.378 L97.0353692,64.8769613 L160.075278,1.76604521 C160.827253,1.01322277 161.84819,0.591038525 162.912241,0.592885838 Z" id="Combined-Shape" stroke="#FFFFFF" stroke-width="3" fill="#000000"></path>
                <path d="M95.0846415,68.398565 L95.5951456,68.5735188 L95.945352,99.7539589 L95.4708738,99.5922597 L95.0036174,99.7514978 L95.0846415,68.398565 Z" id="Rectangle-2" stroke="#FFFFFF" stroke-width="2" fill="#FFFFFF"></path>
            </g>
        </g>
    </g>
</svg>
