<?xml version="1.0" encoding="UTF-8"?>
<svg width="191px" height="190px" viewBox="0 0 191 190" version="1.1" xmlns="http://www.w3.org/2000/svg" xmlns:xlink="http://www.w3.org/1999/xlink">
    <title>Group</title>
    <g id="Page-1" stroke="none" stroke-width="1" fill="none" fill-rule="evenodd">
        <g id="iPhone-15-Pro" transform="translate(-121, -126)">
            <g id="Group" transform="translate(216.0084, 221.4866) rotate(-45) translate(-216.0084, -221.4866)translate(168.0084, 137.9866)">
                <path d="M68.7433618,0.00432875636 L91.9830902,0.0446755374 C93.0415484,0.0465131398 94.0561288,0.467798307 94.8045729,1.21624238 C96.3666701,2.77833955 96.3666701,5.31099947 94.8045729,6.87309663 L18.206,83.471 L94.8004755,160.118048 C96.3620276,161.68069 96.3611439,164.21335 94.7985018,165.774902 C94.0491369,166.523744 93.0333109,166.944731 91.9739187,166.945487 L68.7739567,166.962058 C67.1811731,166.963196 65.6532989,166.330968 64.5270305,165.2047 L2.5,103.176 L2.5,63.82 L64.487917,1.76406781 C65.6158801,0.634834154 67.1472848,0.00155778727 68.7433618,0.00432875636 Z" id="Combined-Shape" stroke="#FFFFFF" stroke-width="3" fill="#FFFFFF"></path>
                <path d="M2,63.6265524 L2,103.324207 L1.00530164,102.322766 L1.49487541,64.155923 L2,63.6265524 Z" id="Rectangle-2" stroke="#9800FE" stroke-width="2" fill="#9800FE"></path>
            </g>
        </g>
    </g>
</svg>
